<svg width="29" height="21" viewBox="0 0 29 21" fill="none" xmlns="http://www.w3.org/2000/svg">
<path fill-rule="evenodd" clip-rule="evenodd" d="M28.2494 0.850655C28.6337 1.23509 28.8496 1.75642 28.8496 2.3C28.8496 2.84359 28.6337 3.36492 28.2494 3.74935L11.8494 20.1494C11.4649 20.5337 10.9436 20.7496 10.4 20.7496C9.85642 20.7496 9.33509 20.5337 8.95065 20.1494L0.750653 11.9494C0.377229 11.5627 0.170601 11.0449 0.175271 10.5074C0.179942 9.96988 0.395538 9.45571 0.775625 9.07563C1.15571 8.69554 1.66988 8.47994 2.20738 8.47527C2.74488 8.4706 3.26272 8.67723 3.64935 9.05066L10.4 15.8013L25.3507 0.850655C25.7351 0.466339 26.2564 0.250443 26.8 0.250443C27.3436 0.250443 27.8649 0.466339 28.2494 0.850655Z" fill="white"/>
</svg>
